<?xml version="1.0" encoding="utf-8"?>
<!-- Generator: Adobe Illustrator 16.0.2, SVG Export Plug-In . SVG Version: 6.00 Build 0)  -->
<!DOCTYPE svg PUBLIC "-//W3C//DTD SVG 1.1//EN" "http://www.w3.org/Graphics/SVG/1.1/DTD/svg11.dtd">
<svg version="1.1" id="Calque_1" xmlns="http://www.w3.org/2000/svg" xmlns:xlink="http://www.w3.org/1999/xlink" x="0px" y="0px"
	 width="96.739px" height="103.261px" viewBox="0 0 96.739 103.261" enable-background="new 0 0 96.739 103.261"
	 xml:space="preserve">
<g>
	<path fill="#D3A438" d="M75.659,85.839c-0.03,5.247-14.135,9.131-32.275,9.43c-18.146,0.795-32.181-3.053-32.481-8.251
		C10.691,85,25.157,82.75,43.139,81.906C61.113,81.639,75.723,83.773,75.659,85.839z"/>
	<path fill="#F6EEDC" d="M74.07,71.334c-5.368,0.926-10.684,1.548-15.706,1.676c-15.42,0.487-30.633-3.307-45.948-4.438
		c0.149,7.228,0.36,14.701-0.02,16.099c-0.703,2.498,16.399,6.187,22.833,6.116c6.396,1.493,32.346-1.752,35.146-4.563
		c2.969-1.975,3.611-3.951,3.385-5.943C73.588,78.767,73.898,73.733,74.07,71.334z"/>
	<path fill="#E2D6BC" d="M24.645,81.888c6.647,1.459,13.382,2.382,20.14,2.192c7.422-0.192,14.708-1.435,21.9-3.853
		c2.303-0.764,4.703-1.372,7.091-2.043c-0.07-1.971,0.192-6.247,0.347-8.401c-5.365,1.025-10.686,1.784-15.718,1.969
		c-15.465,0.706-30.711-3.622-46.04-4.737c0.082,3.951,0.181,7.969,0.192,11.04C16.538,79.498,20.546,80.983,24.645,81.888z"/>
	<path fill="#E2D6BC" d="M18.017,71.447c-0.012-0.854,0.118-1.642,0.355-2.354c-1.982-0.176-3.969-0.369-5.955-0.521
		c0.149,7.229,0.361,14.698-0.021,16.099c-0.299,0.829,2.478,2.536,6.202,1.801C18.338,81.588,18.097,76.56,18.017,71.447z"/>
	<path fill="#E2D6BC" d="M73.762,80.278c-0.175-1.521,0.135-6.555,0.309-8.943c-4.73,0.624-9.417,1.008-13.881,0.976
		c0.056,0.267,0.098,0.544,0.096,0.842c-0.012,4.449-0.135,8.834-0.232,13.14c4.959,1.208,9.211,0.327,10.277-0.251
		C73.361,84.333,73.981,82.245,73.762,80.278z"/>
	<path fill="#E2D6BC" d="M91.461,41.118c-0.609-4.049-9.363-8.189-23.816-9.22c0.203,2.018,0.369,4.032,0.488,6.054
		c5.582,0.464,14.565,2.349,14.565,5.436c0,3.781,1.364,14.291,0,17.063c-1.051,2.146-11.033,2.412-13.31,2.431
		c0.308,3.228,0.648,6.456,1.004,9.684c0.058-0.782,0.098-1.287,0.098-1.287s2.572-0.259,10.066-2.025
		c7.5-1.768,10.226-9.33,10.908-15.136C92.141,48.312,92.141,45.661,91.461,41.118z"/>
	<g>
		<path fill="#F6EEDC" d="M69.489,63.837c3.509-0.145,9.187-0.607,10.651-2.018c-3.41,0.896-9.104,1.044-10.754,1.054
			C69.419,63.195,69.458,63.517,69.489,63.837z"/>
		<path fill="#F6EEDC" d="M91.461,41.118c-0.609-4.049-9.363-8.189-23.816-9.22c0.041,0.408,0.061,0.82,0.1,1.231
			c13.025,1.293,20.862,5.189,21.434,9.011c0.682,4.543,0.682,7.195,0,12.995c-0.566,4.841-2.572,10.896-7.564,13.8
			c6.695-2.201,9.202-9.308,9.852-14.827C92.141,48.312,92.141,45.661,91.461,41.118z"/>
		<path fill="#F6EEDC" d="M70.329,71.963c0.021,0.193,0.04,0.396,0.062,0.596c0.021-0.236,0.03-0.434,0.047-0.613
			C70.397,71.952,70.366,71.958,70.329,71.963z"/>
	</g>
	<path fill="#F6EEDC" d="M79.837,65.264c-2.192,0.915-5.608,1.465-10.228,1.638c0.113,1.196,0.238,2.396,0.369,3.595
		c1.539-0.286,3.86-0.769,7.178-1.548c1.021-0.238,1.914-0.636,2.719-1.127C79.85,66.968,79.84,66.114,79.837,65.264z"/>
	<path fill="#F6EEDC" d="M86.135,42.515c-0.324-2.161-6.341-5.673-18.252-6.987c0.043,0.523,0.084,1.043,0.123,1.561
		c4.924,0.615,14.69,2.467,14.69,7.417c0,1.035,0.11,2.649,0.239,4.522c0.099,1.418,0.183,2.738,0.248,3.979
		c0.465,3.343,0.479,6.674,0.496,10.003c1.616-2.854,2.226-6.124,2.444-7.996C86.789,49.354,86.791,46.9,86.135,42.515z"/>
	<path fill="#E2D6BC" d="M47.018,72.408c-0.002-0.175,0.03-0.329,0.054-0.489c-3.526-0.179-7.056-0.552-10.577-0.914
		c0.007,0.141,0.023,0.274,0.023,0.421c-0.027,5.174,0.116,10.301,0.282,15.437c2.317,0.643,6.182,1.031,10.174-0.173
		C47.092,81.948,47.097,77.218,47.018,72.408z"/>
	<path fill="#D98530" d="M73.266,21.958h-2.885c0.086,1.626,0.142,3.246,0.151,4.864c0.026,6.401-1.058,12.766-0.771,18.979
		c0.511,11.059,0.518,20.841,0.545,31.418c0.683-0.013,1.365-0.024,2.05-0.029c0.466-0.056,0.936-0.104,1.407-0.146
		c0.073-0.165,0.129-0.341,0.18-0.513C73.795,58.04,73.785,29.038,73.266,21.958z"/>
	<g>
		<path fill="#EA9F43" d="M11.817,21.958c0.002-0.028,0.785,21.916,0.411,29.563c-0.301,6.206,0.231,17.127,0.091,23.023
			c1.703,4.941,15.91,7.319,16.52,7.107c10.156,1.489,20.434,0.25,30.553-1.203c4.328-0.625,8.61-1.651,12.828-2.795
			c0.511-0.188,1.024-0.378,1.531-0.562c0.079-0.19,0.137-0.378,0.19-0.563c-0.229-18.433-0.353-47.453-0.96-54.574
			C52.594,21.957,32.205,21.958,11.817,21.958L11.817,21.958z"/>
		<path fill="#D98530" d="M58.014,79.173c13.106-2.745,10.508-15.276,10.655-18.891c0.396-12.505,0.513-25.253,0.78-38.325
			c1.281,0,2.563,0,3.843,0c-0.002-0.026-0.746,21.98-0.36,29.648c0.313,6.225-0.265,19.23-0.113,25.114
			c-2.01,0.647-4.067,1.34-6.231,2.076C66.738,77.243,57.977,80.911,58.014,79.173z"/>
	</g>
	<path fill="#EABA6D" d="M31.851,27.317c-3.565-0.051-7.136-0.188-10.707-0.381c-0.811,14.21,0.473,37.328,1.253,48.813
		c3.53,1.258,11.6,3.063,10.565-0.001C32.195,73.488,32.376,31.767,31.851,27.317z"/>
	<path fill="#EABA6D" d="M53.223,22.72c-2.303,0.33-4.613,0.61-6.924,0.807c-1.025,16.326,0.754,41.462,0.869,52.968
		c2.301,0.472,4.716,0.479,6.976-0.033C54.753,69.891,53.721,26.495,53.223,22.72z"/>
	<path fill="#F6EEDC" d="M51.005,24.781c6.869-0.572,20.81-0.928,21.147,2.122c0.438,3.678,4.662,5.491,4.859,2.376
		c0.104-3.576,3.991-11.028-11.777-16.664c-16.126-4.19-13.373-2.661-22.129-3.22C34.347,9.6,38.472,0.448,21.372,7.861
		c-16.742,9.104-17.22,18.756-9.534,19.82c7.907,0.315,13.053,3.349,19.766,3.305C38.339,30.836,45.155,25.182,51.005,24.781z"/>
	<path fill="#E2D6BC" d="M73.238,26.863c-0.418-1.095-0.766-4.057-2.047-5.319c-3.588-3.646-9.422-5.413-14.45-5.82
		c-7.404-0.987-14.54,0.521-21.87,2.949c-6.434,2.22-12.882,3.521-19.021,1.438c-2.756-0.878-4.805-2.525-6.021-4.467
		c-4.527,6.688-3.242,10.604,2.011,11.354c7.917-0.067,13.077,3.383,19.802,3.313c6.748-0.235,13.568-6.916,19.398-7.052
		c6.869-0.47,20.662,0.763,20.978,3.396c0.175,1.276,1.002,2.449,1.914,2.901C73.738,28.695,73.592,27.79,73.238,26.863z"/>
</g>
</svg>
