<?xml version="1.0" encoding="utf-8"?>
<!DOCTYPE svg PUBLIC "-//W3C//DTD SVG 1.1//EN" "http://www.w3.org/Graphics/SVG/1.1/DTD/svg11.dtd">
<svg version="1.1" id="Calque_1" xmlns="http://www.w3.org/2000/svg" xmlns:xlink="http://www.w3.org/1999/xlink" x="0px" y="0px"
	 width="82.167px" height="105.333px" viewBox="0 0 82.167 105.333" enable-background="new 0 0 82.167 105.333"
	 xml:space="preserve">
<g id="coffee-details">
	<g id="coffee-icon">
		<path fill="#E4E2DF" d="M37.909,39.807c0,0-33.564-4.988-33.564-17.213c0-12.221,25.302-18.59,36.662-18.069
			c11.36,0.519,43.72,5.336,36.146,19.447C69.581,38.085,37.909,39.807,37.909,39.807z" />
		<ellipse fill="#3F3524" cx="39.843" cy="86.978" rx="31" ry="14.875"/>
		<path fill="#B2B0AB" d="M38.242,38.08c0,0-30.283-4.313-30.283-14.859c0-10.551,22.829-16.049,33.078-15.604
			c10.249,0.446,39.441,4.604,32.608,16.791C66.817,36.595,38.242,38.08,38.242,38.08z"/>
		<path fill="#4D3C2A" d="M38.445,39.109c0,0-28.29-4.023-28.29-13.881c0-9.854,21.327-14.993,30.902-14.576
			s36.85,4.306,30.466,15.688C65.139,37.723,38.445,39.109,38.445,39.109z"/>
		<path fill="#5C5036">
			<animate id="startCoffe" attributeName="d" from="M36.877,13.268c0,0-24.292,0.614-21.71,12.315c2.582,11.704,37.083,11.167,48.389,5.93c9.467-1.55-6.579-6.063-22.056-8.68C27.7,20.5,36.877,13.268,36.877,13.268z" to="M36.877,13.268c0,0-12.626-0.136-10.044,11.565c2.582,11.704,27.256,8.232,36.723,6.68c9.467-1.55,1.754-9.563-13.723-12.18C36.033,16.999,36.877,13.268,36.877,13.268z" dur="1s" attributeType="XML" begin="0s ; stopCoffe.end" />

			<animate id="stopCoffe" attributeName="d" from="M36.877,13.268c0,0-12.626-0.136-10.044,11.565c2.582,11.704,27.256,8.232,36.723,6.68c9.467-1.55,1.754-9.563-13.723-12.18C36.033,16.999,36.877,13.268,36.877,13.268z" to="M36.877,13.268c0,0-24.292,0.614-21.71,12.315c2.582,11.704,37.083,11.167,48.389,5.93c9.467-1.55-6.579-6.063-22.056-8.68C27.7,20.5,36.877,13.268,36.877,13.268z" dur="1s" attributeType="XML" begin="startCoffe.end" />
		</path>
		<path fill="#D4CFC9" d="M4.345,22.594l6.196,65.063c0,0,30.466,21.172,59.383,0l7.746-65.063
			C77.67,22.594,44.106,55.125,4.345,22.594z"/>
		<path fill="#C1BCB4" d="M38.684,38.858c0,0,21.171,0.671,38.471-11.932l-7.229,60.729c0,0-12.646,9.253-27.624,9.398
			c0,0,19.361-0.71,20.911-8.714c1.549-8.004,9.145-60.402,4.815-56.801C64.933,34.127,38.684,38.858,38.684,38.858z"/>
		<circle fill="#E4E2DF" cx="40.362" cy="60.934" r="14.071"/>
	</g>
</g>
</svg>
