<?xml version="1.0" encoding="UTF-8" standalone="no"?>
<!-- Created with Inkscape (http://www.inkscape.org/) -->

<svg
   xmlns:dc="http://purl.org/dc/elements/1.1/"
   xmlns:cc="http://creativecommons.org/ns#"
   xmlns:rdf="http://www.w3.org/1999/02/22-rdf-syntax-ns#"
   xmlns:svg="http://www.w3.org/2000/svg"
   xmlns="http://www.w3.org/2000/svg"
   version="1.1"
   width="50"
   height="42.075001"
   id="svg2"
   xml:space="preserve"><metadata
     id="metadata8"><rdf:RDF><cc:Work
         rdf:about=""><dc:format>image/svg+xml</dc:format><dc:type
           rdf:resource="http://purl.org/dc/dcmitype/StillImage" /><dc:title></dc:title></cc:Work></rdf:RDF></metadata><defs
     id="defs6"><clipPath
       id="clipPath18"><path
         d="M 0,336.602 0,0 l 1834.67,0 0,336.602"
         id="path20" /></clipPath></defs><g
     transform="matrix(1.25,0,0,-1.25,0,42.075)"
     id="g10"><g
       transform="scale(0.1,0.1)"
       id="g12"><g
         id="g14"><g
           clip-path="url(#clipPath18)"
           id="g16"><g
             transform="scale(10,10)"
             id="g22"><text
               transform="matrix(-0.09143931,0.43251556,0.99581065,0.08782198,27.3469,27.4387)"
               id="text24"><tspan
                 x="0"
                 y="0"
                 id="tspan26"
                 style="font-size:23.17192078px;font-variant:normal;font-weight:normal;writing-mode:lr-tb;fill:#272f47;fill-opacity:1;fill-rule:nonzero;stroke:none;font-family:'Lobster1.4';-inkscape-font-specification:'Lobster1.4'">S</tspan></text>
</g><path
             d="M 15.1289,174.648 C 4.125,160.645 -0.875,144.648 0.125,128.645 c 1.00391,-15.997 9,-28.9966 21.0039,-38.9966 12.9961,-10 27,-13.0078 42.9961,-10 6.0039,0.9961 13.0039,3.9961 19.0039,5.9961 -13,0 -24.0039,4.0039 -35,13 -12,9.0035 -20,21.0035 -22,36.0035 -3,13.997 0,26.993 7.9961,38 9.0039,10.997 20,17 35,18.993 15,1.007 28.0039,-2.996 41.004,-11.993 -3,3.997 -7,6.993 -11.004,10.997 -12.9961,9.003 -26.9961,13 -43.9961,9.003 -16.0039,-3.007 -29,-11.003 -40,-25"
             id="path28"
             style="fill:#272f47;fill-opacity:1;fill-rule:nonzero;stroke:none" /><path
             d="m 189.125,249.645 c -41.996,0 -78.996,4 -105.9961,10 -29.0039,7 -44.0039,15 -44.0039,25 0,4 2.0039,8.003 8.0039,12 -18.0039,-7 -28.0039,-13 -28.0039,-22 1.0039,-10 17.0039,-20 50,-28 31.004,-8 71.004,-12 119.004,-12 49,0 88,4 119,12 33,8 49,18 49,28 0,7 -7.004,14 -20,19 2.996,-2 5,-5 5,-9 0,-10 -15,-18 -45,-25 -28,-6 -64,-10 -107.004,-10"
             id="path30"
             style="fill:#272f47;fill-opacity:1;fill-rule:nonzero;stroke:none" /><path
             d="m 308.129,221.645 c -31,-7 -71,-12 -119.004,-12 -48.996,0 -88.996,5 -120,12 -27.9961,7 -42.9961,15 -47.9961,23 5,-35 17,-68.004 32.9961,-96.997 12.0039,-18 24.0039,-34.003 36.0039,-51.0074 5,-10 8.9961,-20 11.0001,-30 7.996,-10.9961 19,-17.9961 32.996,-21.9922 17.004,-6.0039 35,-9.0039 53.004,-8.0078 l 1.996,0 c 18.004,-0.9961 37.004,2.0039 55,8.0078 13.004,3.9961 24.004,10.9961 32.004,21.9922 l 1,0 c 1.996,10 5,20 10,30 11.996,17.0044 24,33.0074 36,51.0074 15.996,28.993 27,61.997 33,96.997 -6,-9 -21,-16.997 -48,-23"
             id="path32"
             style="fill:#272f47;fill-opacity:1;fill-rule:nonzero;stroke:none" /></g></g></g></g></svg>