<?xml version="1.0" encoding="utf-8"?>
<!DOCTYPE svg PUBLIC "-//W3C//DTD SVG 1.1//EN" "http://www.w3.org/Graphics/SVG/1.1/DTD/svg11.dtd">
<svg version="1.1" id="Calque_1" xmlns="http://www.w3.org/2000/svg" xmlns:xlink="http://www.w3.org/1999/xlink" x="0px" y="0px"
	 width="100px" height="94px" viewBox="0 0 358.696 336.957" enable-background="new 0 0 358.696 336.957"
	 xml:space="preserve">
<path fill="#E5E5E5" d="M12.609,140.815c0,0,278-15,328-1c7,1,3,174,0,181s-322,14-326,0S5.609,152.815,12.609,140.815z"/>
<g>
	<path fill="#EB5B4C" d="M221.673,247.743l3.469-7.209c-3.722-1.791-7.385-3.485-10.887-5.037l-3.24,7.314
		C214.441,244.329,218.027,245.989,221.673,247.743z"/>
	<path fill="#EB5B4C" d="M167.407,229.816l0.202-0.001c2.925,0,6.503,0.467,10.635,1.388l1.74-7.809
		c-4.703-1.048-8.866-1.579-12.375-1.579l-0.253,0.001L167.407,229.816z"/>
	<path fill="#EB5B4C" d="M263.089,270.157l4.1-6.87c-3.419-2.04-6.889-4.063-10.313-6.016l-3.961,6.95
		C256.292,266.147,259.716,268.145,263.089,270.157z"/>
	<path fill="#EB5B4C" d="M200.221,238.279l2.939-7.44c-3.987-1.575-7.814-2.967-11.375-4.137l-2.498,7.6
		C192.701,235.423,196.378,236.762,200.221,238.279z"/>
	<path fill="#EB5B4C" d="M321.194,310.183l5.08-6.18c-2.942-2.418-6.114-4.926-9.427-7.453l-4.852,6.361
		C315.231,305.38,318.326,307.826,321.194,310.183z"/>
	<path fill="#EB5B4C" d="M335.416,311.888l-5.387,5.915c1.726,1.571,3.329,3.099,4.824,4.579c3.516-0.516,5.531-1.041,5.756-1.566
		c0.195-0.456,0.395-1.622,0.596-3.393C339.428,315.637,337.504,313.79,335.416,311.888z"/>
	<path fill="#EB5B4C" d="M302.543,295.92l4.67-6.496c-3.141-2.257-6.438-4.565-9.804-6.862l-4.51,6.607
		C296.211,291.429,299.457,293.7,302.543,295.92z"/>
	<path fill="#EB5B4C" d="M283.096,282.631l4.367-6.702c-3.286-2.143-6.677-4.303-10.075-6.422l-4.232,6.789
		C276.509,278.388,279.854,280.519,283.096,282.631z"/>
	<path fill="#EB5B4C" d="M246.433,251.46c-3.555-1.93-7.111-3.811-10.573-5.589l-3.656,7.116c3.408,1.75,6.911,3.603,10.413,5.503
		L246.433,251.46z"/>
	<path fill="#EB5B4C" d="M146.27,235.63c3.826-1.691,7.398-3.032,10.617-3.986l-2.273-7.67c-3.545,1.051-7.44,2.511-11.578,4.34
		L146.27,235.63z"/>
	<path fill="#EB5B4C" d="M49.959,302.532c3.066-2.571,6.13-5.111,9.105-7.549l-5.07-6.189c-2.999,2.458-6.086,5.018-9.176,7.608
		L49.959,302.532z"/>
	<path fill="#EB5B4C" d="M68.254,287.544c3.135-2.505,6.257-4.966,9.28-7.313l-4.906-6.318c-3.053,2.37-6.204,4.854-9.368,7.382
		L68.254,287.544z"/>
	<path fill="#EB5B4C" d="M17.784,319.813c-0.804,0.719-1.554,1.393-2.26,2.028c1.075,0.711,3.048,1.359,5.819,1.949L17.784,319.813z
		"/>
	<path fill="#EB5B4C" d="M31.985,317.933c2.738-2.396,5.734-4.995,8.948-7.748l-5.205-6.076c-3.236,2.773-6.254,5.391-9.011,7.803
		L31.985,317.933z"/>
	<path fill="#EB5B4C" d="M125.739,246.493c3.525-2.114,6.939-4.055,10.146-5.766l-3.768-7.059
		c-3.323,1.775-6.854,3.781-10.492,5.963L125.739,246.493z"/>
	<path fill="#EB5B4C" d="M86.905,273.067c3.225-2.424,6.422-4.782,9.503-7.01l-4.688-6.482c-3.121,2.256-6.358,4.645-9.622,7.098
		L86.905,273.067z"/>
	<path fill="#EB5B4C" d="M106.03,259.257c3.348-2.309,6.635-4.512,9.768-6.546l-4.357-6.71c-3.194,2.074-6.543,4.319-9.953,6.67
		L106.03,259.257z"/>
</g>
<path fill="#BABABA" d="M20.389,141.487l318.72-0.922c0,0-139.992,65.411-160.92,65.251
	C157.261,205.655,20.389,141.487,20.389,141.487z"/>
<path id="ouverture" fill="#E5E5E5" d="M12.39,141.487l328.219-0.797c0,0-140.333-133.208-162.333-132.875S12.39,141.487,12.39,141.487z">
	<!-- <animate id="openLetter" fill="freeze" attributeName="d" from="M12.39,141.487l328.219-0.797c0,0-142.884,70.383-164.884,70.716S12.39,141.487,12.39,141.487z" to="M12.39,141.487l328.219-0.797c0,0-140.333-133.208-162.333-132.875S12.39,141.487,12.39,141.487z" dur="0.5s" attributeType="XML" />
	<animate id="closeLetter" fill="freeze" restart="always" attributeName="d" from="M12.39,141.487l328.219-0.797c0,0-140.333-133.208-162.333-132.875S12.39,141.487,12.39,141.487z" to="M12.39,141.487l328.219-0.797c0,0-142.884,70.383-164.884,70.716S12.39,141.487,12.39,141.487z" dur="0.5s" attributeType="XML" /> -->
</path>
<path fill="none" stroke="#EB5B4C" stroke-width="10" stroke-miterlimit="5" stroke-dasharray="11" d="M15.109,143.315c0,0,146.167-135.438,163.5-132.438s121.5,93.938,159.833,133.604"/>
</svg>
