<?xml version="1.0" encoding="utf-8"?>
<!-- Generator: Adobe Illustrator 16.0.2, SVG Export Plug-In . SVG Version: 6.00 Build 0)  -->
<!DOCTYPE svg PUBLIC "-//W3C//DTD SVG 1.1//EN" "http://www.w3.org/Graphics/SVG/1.1/DTD/svg11.dtd">
<svg version="1.1" id="Calque_1" xmlns="http://www.w3.org/2000/svg" xmlns:xlink="http://www.w3.org/1999/xlink" x="0px" y="0px"
	 width="85px" height="85px" viewBox="25.167 15.917 85 85" enable-background="new 25.167 15.917 85 85" xml:space="preserve">
<g id="carré">
	<g>
		<g>
			<circle cx="68.721" cy="59.184" r="39.185"/>
			<path fill="#FFFFFF" d="M85.853,34.499c-3.981,0.136-7.456,2.332-10.042,5.365c-2.863,3.33-4.769,7.275-6.142,11.304
				c-2.455-2.011-4.349-4.618-8.289-5.75c-3.045-0.877-6.244-0.516-9.185,1.676c-1.393,1.041-2.354,2.612-2.81,4.093
				c-1.181,3.842,1.242,7.263,2.344,8.491l2.409,2.578c0.496,0.507,1.692,1.826,1.108,3.72c-0.63,2.06-3.112,3.389-5.656,2.604
				c-1.137-0.35-2.768-1.194-2.403-2.387c0.151-0.486,0.5-0.854,0.689-1.271c0.169-0.36,0.253-0.635,0.305-0.797
				c0.465-1.514-0.171-3.487-1.795-3.99c-1.517-0.464-3.067-0.095-3.669,1.854c-0.683,2.22,0.38,6.245,6.065,7.997
				c6.661,2.047,12.295-1.58,13.094-6.311c0.505-2.96-0.835-5.163-3.283-7.993l-1.998-2.209c-1.209-1.208-1.625-3.268-0.373-4.85
				c1.056-1.337,2.559-1.906,5.025-1.236c3.597,0.976,5.2,3.472,7.874,5.485c-1.103,3.624-1.825,7.259-2.478,10.521l-0.401,2.43
				c-1.912,10.029-3.372,15.539-7.166,18.699c-0.764,0.545-1.858,1.358-3.505,1.416c-0.864,0.026-1.142-0.567-1.153-0.826
				c-0.02-0.604,0.49-0.883,0.829-1.155c0.508-0.277,1.275-0.736,1.222-2.203c-0.055-1.736-1.494-3.242-3.571-3.174
				c-1.558,0.049-3.931,1.516-3.842,4.2c0.093,2.771,2.674,4.851,6.569,4.716c2.082-0.07,6.73-0.914,11.311-6.363
				c5.332-6.242,6.823-13.398,7.943-18.633l1.254-6.918c0.693,0.085,1.438,0.143,2.247,0.161c6.642,0.141,9.962-3.297,10.013-5.8
				c0.032-1.514-0.994-3.006-2.433-2.969c-1.027,0.028-2.318,0.713-2.629,2.135c-0.303,1.395,2.113,2.655,0.226,3.879
				c-1.341,0.868-3.747,1.479-7.133,0.983l0.615-3.403c1.256-6.456,2.807-14.394,8.689-14.589c0.429-0.02,1.996,0.02,2.033,1.056
				c0.01,0.346-0.077,0.438-0.479,1.229c-0.415,0.618-0.57,1.145-0.552,1.749c0.058,1.647,1.311,2.731,3.125,2.667
				c2.426-0.081,3.124-2.441,3.083-3.656C92.837,36.17,89.83,34.367,85.853,34.499z"/>
		</g>
	</g>
</g>
</svg>
