<?xml version="1.0" encoding="UTF-8" standalone="no"?>
<!-- Created with Inkscape (http://www.inkscape.org/) -->

<svg
   xmlns:dc="http://purl.org/dc/elements/1.1/"
   xmlns:cc="http://creativecommons.org/ns#"
   xmlns:rdf="http://www.w3.org/1999/02/22-rdf-syntax-ns#"
   xmlns:svg="http://www.w3.org/2000/svg"
   xmlns="http://www.w3.org/2000/svg"
   xmlns:xlink="http://www.w3.org/1999/xlink"
   version="1.1"
   width="230.04999"
   height="235.019"
   viewBox="0 0 230.05 235.019"
   id="Camada_1"
   xml:space="preserve"><metadata
     id="metadata203"><rdf:RDF><cc:Work
         rdf:about=""><dc:format>image/svg+xml</dc:format><dc:type
           rdf:resource="http://purl.org/dc/dcmitype/StillImage" /><dc:title></dc:title></cc:Work></rdf:RDF></metadata><defs
     id="defs201" /><g
     id="g3"><g
       id="g5"><defs
         id="defs7"><path
           d="m 387.441,-281.275 v -0.256 l 5.641,-28.21 c 0,0 -12.537,-28.837 -54.537,-25.389 -42.002,3.448 -47.33,13.165 -54.226,24.762 l 4.074,18.493 -7.836,5.015 c 0,0 -2.821,-8.463 -7.209,-8.776 0,0 6.582,-9.403 1.881,-15.985 -4.702,-6.583 -29.777,-5.956 -39.494,27.269 0,0 -1.253,-10.03 -5.328,-10.03 -4.075,0 -19.12,5.329 -15.045,21 4.074,15.672 18.18,20.374 22.881,22.254 0,0 2.193,2.821 1.254,6.582 -0.494,1.975 -11.868,37.133 -2.368,69.633 7.095,24.27 29.774,45.357 29.774,45.357 17.322,16.523 40.693,26.658 66.413,26.658 53.395,0 96.688,-43.67 96.688,-97.545 -0.001,-33.635 -16.883,-63.297 -42.563,-80.832 z"
           id="SVGID_1_" /></defs><clipPath
         id="SVGID_2_"><use
           id="use11"
           style="overflow:visible"
           x="0"
           y="0"
           width="674.04999"
           height="235.019"
           xlink:href="#SVGID_1_" /></clipPath><g
         clip-path="url(#SVGID_2_)"
         id="g13"><ellipse
           cx="339.02899"
           cy="33.125"
           rx="89.264999"
           ry="7.4429998"
           id="ellipse15"
           style="fill:#d1d1d1" /><g
           id="g17"><g
             id="g19"><path
               d="m 258.488,-76.548 76.568,98.746 c 0,0 2.994,1.07 4.277,-0.428 v -98.318 h -80.845 z"
               id="path21"
               style="fill:#050505" /><path
               d="M 335.056,22.198 319.658,32.25 v 2.139 h 19.891 L 339.334,21.77 c -10e-4,0 -2.137,-2.352 -4.278,0.428 z"
               id="path23"
               style="fill:#050505" /></g><g
             id="g25"><path
               d="M 419.57,-76.548 343,22.198 c 0,0 -2.992,1.07 -4.277,-0.428 v -98.318 h 80.847 z"
               id="path27"
               style="fill:#050505" /><path
               d="m 343,22.198 15.4,10.053 v 2.139 h -19.891 l 0.213,-12.619 c 0,-0.001 2.139,-2.353 4.278,0.427 z"
               id="path29"
               style="fill:#050505" /></g><path
             d="m 339.027,21.465 c 0.447,-5.318 0.717,-12.174 0.717,-19.658 0,-7.484 -0.27,-14.338 -0.717,-19.66 -0.445,5.322 -0.713,12.176 -0.713,19.66 0,7.484 0.268,14.34 0.713,19.658 z"
             id="path31"
             style="fill:#191919" /></g></g></g></g><g
     id="g33"><g
       id="g49"><path
         d="m 118.648,235.019 c -54.691,0 -99.186,-44.88 -99.186,-100.045 0,-55.163 44.494,-100.041 99.186,-100.041 54.692,0 99.186,44.878 99.186,100.041 -0.001,55.165 -44.495,100.045 -99.186,100.045 z m 0,-195.086 c -51.934,0 -94.186,42.635 -94.186,95.041 0,52.408 42.252,95.045 94.186,95.045 51.935,0 94.186,-42.637 94.186,-95.045 -0.001,-52.406 -42.251,-95.041 -94.186,-95.041 z"
         id="path51"
         style="fill:#020202" /><g
         id="g53"><defs
           id="defs55"><path
             d="m 172.771,54.14 v -0.256 l 5.643,-28.209 c 0,0 -12.537,-28.838 -54.539,-25.389 -42,3.447 -47.328,13.164 -54.225,24.762 l 4.074,18.492 -7.836,5.016 c 0,0 -2.82,-8.463 -7.209,-8.776 0,0 6.582,-9.403 1.881,-15.985 -4.701,-6.582 -29.777,-5.956 -39.494,27.27 0,0 -1.252,-10.03 -5.328,-10.03 -4.074,0 -19.119,5.329 -15.045,21.001 4.074,15.672 18.18,20.373 22.881,22.254 0,0 2.193,2.82 1.254,6.582 -0.494,1.975 -11.867,37.133 -2.367,69.633 7.094,24.27 29.773,45.357 29.773,45.357 17.322,16.523 40.693,26.658 66.414,26.658 53.395,0 96.686,-43.67 96.686,-97.545 -0.001,-33.637 -16.881,-63.299 -42.563,-80.835 z"
             id="SVGID_3_" /></defs><clipPath
           id="SVGID_4_"><use
             id="use59"
             style="overflow:visible"
             x="0"
             y="0"
             width="674.04999"
             height="235.019"
             xlink:href="#SVGID_3_" /></clipPath><g
           clip-path="url(#SVGID_4_)"
           id="g61"><path
             d="m 152.747,170.529 c 0,0 70.272,11.314 78.014,109.576 0,0 -13.103,8.338 -26.799,8.934 -10e-4,0 1.191,-75.631 -51.215,-118.51 z"
             id="path63"
             style="fill:#050505" /><g
             id="g65"><path
               d="m 193.838,231.99 c 0.55,1.59 1.067,3.17 1.56,4.734 4.617,-0.469 14.965,-1.93 24.133,-6.082 -0.641,-1.537 -1.301,-3.027 -1.977,-4.486 -3.371,1.552 -10.845,4.312 -23.716,5.834 z"
               id="path67"
               style="fill:#dd002a" /></g><g
             id="g69"><g
               id="g71"><circle
                 cx="80.255997"
                 cy="96.111"
                 r="15.072"
                 id="circle73"
                 style="fill:#f4cf8c" /><circle
                 cx="80.255997"
                 cy="96.111"
                 r="15.072"
                 id="circle75"
                 style="fill:#f4cf8c" /><path
                 d="m 65.184,96.111 c 0,0.463 0.024,0.92 0.065,1.372 1.074,-0.456 2.219,-1.05 3.439,-1.831 7.142,-4.562 7.354,-10.004 5.758,-13.451 -5.439,2.273 -9.262,7.644 -9.262,13.91 z"
                 id="path77"
                 style="fill:#f4cf8c" /><circle
                 cx="72.470001"
                 cy="96.111"
                 r="7.2859998"
                 id="circle79"
                 style="fill:#f4cf8c" /><g
                 id="g81"><path
                   d="m 72.47,88.826 c -0.297,0 -0.586,0.021 -0.872,0.057 2.84,0.432 5.042,3.5 5.042,7.229 0,3.729 -2.202,6.797 -5.042,7.229 0.286,0.034 0.575,0.057 0.872,0.057 4.022,0 7.285,-3.262 7.285,-7.285 0,-4.023 -3.262,-7.287 -7.285,-7.287 z"
                   id="path83"
                   style="fill:#d8af6f" /><path
                   d="m 71.598,88.882 c -0.226,-0.035 -0.453,-0.057 -0.686,-0.057 -3.164,0 -5.729,3.262 -5.729,7.285 10e-4,-3.728 2.803,-6.796 6.415,-7.228 z"
                   id="path85"
                   style="fill:#f4cf8c" /><path
                   d="m 65.184,96.111 c 0,4.023 2.564,7.285 5.729,7.285 0.232,0 0.46,-0.022 0.686,-0.057 -3.613,-0.431 -6.415,-3.5 -6.415,-7.228 z"
                   id="path87"
                   style="fill:#f4cf8c" /></g></g><g
               id="g89"><circle
                 cx="168.463"
                 cy="96.111"
                 r="15.073"
                 id="circle91"
                 style="fill:#f4cf8c" /><circle
                 cx="168.463"
                 cy="96.111"
                 r="15.073"
                 id="circle93"
                 style="fill:#f4cf8c" /><circle
                 cx="176.25"
                 cy="96.111"
                 r="7.2859998"
                 id="circle95"
                 style="fill:#f4cf8c" /><g
                 id="g97"><path
                   d="m 172.08,96.111 c 0,-3.729 2.201,-6.797 5.041,-7.229 -0.285,-0.035 -0.576,-0.057 -0.871,-0.057 -4.025,0 -7.285,3.262 -7.285,7.285 0,4.023 3.26,7.285 7.285,7.285 0.295,0 0.586,-0.022 0.871,-0.057 -2.84,-0.43 -5.041,-3.499 -5.041,-7.227 z"
                   id="path99"
                   style="fill:#d8af6f" /><path
                   d="m 183.537,96.111 c 0,-4.023 -2.566,-7.285 -5.729,-7.285 -0.234,0 -0.462,0.021 -0.688,0.057 3.614,0.431 6.417,3.499 6.417,7.228 z"
                   id="path101"
                   style="fill:#f4cf8c" /><path
                   d="m 177.121,103.339 c 0.226,0.034 0.453,0.057 0.688,0.057 3.162,0 5.729,-3.262 5.729,-7.285 -0.001,3.728 -2.804,6.797 -6.417,7.228 z"
                   id="path103"
                   style="fill:#f4cf8c" /></g></g></g><g
             id="g105"><path
               d="m 38.152,105.74 c 0,0 14.375,1.876 12.5,-12.499 0,0 5,7.812 16.25,0.624 11.25,-7.187 5.312,-16.562 2.188,-16.873 -3.125,-0.313 -7.5,-3.752 -18.438,7.499 l -6.25,-14.374 7.188,-9.376 c 0,0 0.987,13.542 11.432,9.739 10.443,-3.801 2.631,-26.927 -6.744,-26.927 -9.375,0 -16.876,9.687 -16.876,9.687 0,0 3.125,-8.748 16.875,-15.936 0,0 5.312,-3.125 2.188,-10.938 -3.124,-7.813 -32.812,-2.188 -37.5,35.937 0,0 -5.312,-5 -4.062,-12.812 1.25,-7.812 -15.314,-5.625 -12.189,11.25 3.125,16.876 19.376,20.311 19.376,20.311 0,0 5.517,8.927 1.562,19.062 0,10e-4 6.25,7.814 12.5,5.626 z"
               id="path107"
               style="fill:#f4cf8c" /><g
               id="g109"><path
                 d="m 66.902,93.865 c 11.25,-7.187 5.312,-16.562 2.188,-16.873 -1.921,-0.193 -4.318,-1.562 -8.418,0.023 l 3.683,7.585 c 0,0 -0.757,10.849 -12.866,8.073 0,0 -0.128,0.427 -0.444,1.076 1.371,1.61 6.409,6.153 15.857,0.116 z"
                 id="path111"
                 style="fill:#f4cf8c" /><path
                 d="m 50.757,94.298 c -1.873,3.359 -8.365,9.812 -23.969,1.768 -0.297,1.406 -0.578,2.656 -1.137,4.049 0,0 6.25,7.813 12.5,5.625 10e-4,0 13.647,1.774 12.606,-11.442 z"
                 id="path113"
                 style="fill:#f4cf8c" /></g><path
               d="m 51.589,60.741 c 0,0 0.987,13.542 11.432,9.739 4.27,-1.555 5.487,-6.34 4.794,-11.455 -2.606,2.697 -10.653,9.541 -13.805,-4.954 l -14.382,16.652 -11.354,6.56 14.129,-3.532 8.248,10.74 -6.25,-14.374 7.188,-9.376 z"
               id="path115"
               style="fill:#f4cf8c" /><path
               d="m 41.754,49.178 c 2.327,-3.201 6.708,-7.79 14.522,-11.874 0,0 5.312,-3.125 2.188,-10.938 -0.054,-0.135 -0.117,-0.264 -0.186,-0.389 -0.742,2.363 -2.189,5.18 -5.025,7.152 -5.803,4.037 -26.492,18.417 -19.932,40.115 0.001,0.002 -2.654,-13.424 8.433,-24.066 z"
               id="path117"
               style="fill:#f4cf8c" /><path
               d="m 20.668,61.997 c -1.098,-1.19 -4.837,-5.815 -3.767,-12.506 0.494,-3.086 -1.795,-4.604 -4.549,-4.28 -0.49,8.401 0.668,25.426 17.184,30.306 10e-4,-10e-4 -6.255,-2.974 -8.868,-13.52 z"
               id="path119"
               style="fill:#f4cf8c" /></g><path
             d="m 25.652,100.115 12.5,5.625 c 0,0 -11.25,61.875 47.5,64.375 0,0 0.414,39.797 -35.836,39.174 0,0 -47.91,-38.057 -24.164,-109.174 z"
             id="path121"
             style="fill:#050505" /><path
             d="m 40.626,139.4 c -0.191,-0.566 -0.371,-1.135 -0.543,-1.703 -0.003,-0.01 -0.007,-0.021 -0.01,-0.033 -2.777,1.439 -10.247,4.67 -20.959,4.564 0.049,1.381 0.13,2.736 0.232,4.076 5.38,0.016 14.254,-0.711 21.997,-4.887 -0.005,-0.014 -0.011,-0.029 -0.016,-0.043 -0.223,-0.584 -0.431,-1.17 -0.63,-1.758 -0.024,-0.072 -0.047,-0.144 -0.071,-0.216 z"
             id="path123"
             style="fill:#dd002a" /><path
             d="m 44.587,148.265 c -0.295,-0.514 -0.579,-1.031 -0.853,-1.553 -0.001,-0.002 -0.003,-0.004 -0.004,-0.006 -3.2,1.516 -12.116,5.143 -23.808,5.152 0.204,1.537 0.443,3.045 0.712,4.523 6.36,0.006 15.767,-1.123 24.961,-6.447 -0.009,-0.014 -0.017,-0.029 -0.026,-0.043 -0.322,-0.506 -0.63,-1.018 -0.928,-1.533 -0.017,-0.03 -0.035,-0.062 -0.054,-0.093 z"
             id="path125"
             style="fill:#dd002a" /><path
             d="m 25.652,100.115 c -3.394,9.298 -4.824,17.829 -5.949,25.83 5.943,1.146 11.942,1.254 17.811,-2.539 -0.748,-10.02 0.639,-17.666 0.639,-17.666 l -12.501,-5.625 z"
             id="path127"
             style="fill:#dd002a" /><path
             d="M 159.607,168.544 H 124.36 89.113 C 14.077,201.495 31.546,325.763 31.546,325.763 h 93.299 v -56.826 l 5.161,56.826 h 87.168 c -0.001,0 17.469,-124.267 -57.567,-157.219 z"
             id="path129"
             style="fill:#050505" /><path
             d="m 222.833,284.201 c -1.055,-26.695 -6.416,-61.053 -24.402,-86.768 -21.543,-23.008 -45.685,-26.904 -45.685,-26.904 52.406,42.879 51.215,118.51 51.215,118.51 7.006,-0.305 13.851,-2.635 18.872,-4.838 z"
             id="path131"
             style="fill:#930023" /><path
             d="m 34.581,245.972 c -0.243,1.143 -0.476,2.287 -0.696,3.428 20.736,-7.637 53.545,-12.57 90.476,-12.57 36.932,0 69.739,4.934 90.476,12.57 -0.221,-1.141 -0.453,-2.285 -0.697,-3.428 -20.77,-7.494 -53.258,-12.318 -89.778,-12.318 -36.52,0 -69.011,4.824 -89.781,12.318 z"
             id="path133"
             style="fill:#dd002a" /><path
             d="m 38.689,230.279 c -0.324,1.027 -0.638,2.059 -0.94,3.088 20.826,-6.865 51.896,-11.225 86.611,-11.225 34.715,0 65.784,4.359 86.61,11.225 -0.301,-1.029 -0.615,-2.061 -0.939,-3.088 -20.816,-6.689 -51.479,-10.918 -85.671,-10.918 -34.194,0 -64.855,4.228 -85.671,10.918 z"
             id="path135"
             style="fill:#dd002a" /><path
             d="m 67.855,182.185 c -16.068,20.713 -14.336,45.91 -14.336,45.91 l 4.368,-1.984 c -1.374,-21.98 8.659,-39.393 14.97,-48.037 -1.733,1.314 -3.4,2.685 -5.002,4.111 z"
             id="path137"
             style="fill:#dd002a" /><path
             d="m 175.863,178.074 c 6.311,8.645 16.344,26.057 14.971,48.037 l 4.366,1.984 c 0,0 1.733,-25.197 -14.335,-45.908 -1.601,-1.428 -3.268,-2.799 -5.002,-4.113 z"
             id="path139"
             style="fill:#dd002a" /><path
             d="m 163.347,165.955 c 0,0 -14.984,13.652 -39.624,13.652 -29.302,0 -38.351,-13.652 -38.351,-13.652 L 80.185,70.48 h 88.35 l -5.188,95.475 z"
             id="path141"
             style="fill:#f4cf8c" /><path
             d="m 163.347,165.955 c 0,0 -14.984,13.652 -39.624,13.652 -29.302,0 -38.351,-13.652 -38.351,-13.652 L 80.185,70.48 h 88.35 l -5.188,95.475 z"
             id="path143"
             style="fill:#f4cf8c" /><path
             d="m 163.347,165.955 c 0,0 -14.984,13.652 -39.624,13.652 -29.302,0 -38.351,-13.652 -38.351,-13.652 L 80.185,70.48 h 88.35 l -5.188,95.475 z"
             id="path145"
             style="fill:#f4cf8c" /><path
             d="m 135.577,86.757 2.183,-2.777 c 0,0 7.94,-0.398 20.149,6.152 0,0 -8.835,-10.918 -22.136,-7.246 l 0.398,-2.382 -3.771,6.154 c 0,0 1.389,8.237 -0.099,14.193 h -15.882 c -1.49,-5.956 -0.1,-14.193 -0.1,-14.193 l -3.771,-6.154 0.396,2.382 c -13.299,-3.672 -22.133,7.246 -22.133,7.246 12.208,-6.551 20.148,-6.152 20.148,-6.152 l 2.184,2.777 c -4.269,8.536 -14.293,9.23 -14.293,9.23 10.521,1.093 14.393,-5.458 14.393,-5.458 -0.596,5.161 0.496,11.956 0.496,11.956 l 10.57,7.448 0.05,-0.05 0.05,0.05 10.57,-7.448 c 0,0 1.092,-6.795 0.496,-11.956 0,0 3.871,6.551 14.393,5.458 0.001,0.001 -10.025,-0.694 -14.291,-9.23 z"
             id="path147"
             style="fill:#b27d30" /><ellipse
             cx="124.36"
             cy="117.675"
             rx="14.491"
             ry="8.6859999"
             id="ellipse149"
             style="fill:#050505" /><path
             d="m 124.36,126.796 c 3.279,0 6.303,-1.088 8.731,-2.189 -1.701,-1.84 -4.974,-3.088 -8.731,-3.088 -3.759,0 -7.03,1.248 -8.731,3.088 2.427,1.101 5.452,2.189 8.731,2.189 z"
             id="path151"
             style="fill:#dd002a" /><path
             d="m 124.36,108.991 c -8.003,0 -14.491,3.889 -14.491,8.685 0,0.251 0.021,0.498 0.057,0.745 h 28.869 c 0.035,-0.247 0.057,-0.494 0.057,-0.745 -0.001,-4.797 -6.489,-8.685 -14.492,-8.685 z"
             id="path153"
             style="fill:#ffffff" /><path
             d="m 124.36,132.017 c -2.94,0 -5.676,-0.525 -7.96,-1.428 1.83,2.373 4.711,3.91 7.96,3.91 3.249,0 6.129,-1.537 7.96,-3.91 -2.283,0.903 -5.02,1.428 -7.96,1.428 z"
             id="path155"
             style="fill:#c98c28" /><path
             d="m 124.36,157.851 c -5.024,0 -9.696,-0.9 -13.599,-2.443 3.13,4.055 8.049,6.678 13.599,6.678 5.55,0 10.468,-2.623 13.598,-6.678 -3.904,1.543 -8.576,2.443 -13.598,2.443 z"
             id="path157"
             style="fill:#c98c28" /><polygon
             points="167.682,86.16 168.535,70.48 80.185,70.48 81.037,86.16 "
             id="polygon159"
             style="fill:#cea063" /><path
             d="m 168.728,70.48 7.752,-44.809 c 0,0 -11.689,-22.943 -51.863,-22.943 -48.834,0 -52.377,22.943 -52.377,22.943 l 7.751,44.809 h 88.737 z"
             id="path161"
             style="fill:#050505" /><polygon
             points="79.991,70.48 168.73,70.48 172.053,51.263 76.667,51.263 "
             id="polygon163"
             style="fill:#dd002a" /><polygon
             points="66.593,81.199 63.021,70.48 185.699,70.48 182.126,81.199 "
             id="polygon165"
             style="fill:#050505" /><g
             id="g167"><circle
               cx="124.36"
               cy="57.405998"
               r="14.286"
               id="circle169"
               style="fill:#050505" /><path
               d="m 124.36,69.944 c -6.915,0 -12.54,-5.624 -12.54,-12.534 0,-6.916 5.625,-12.541 12.54,-12.541 6.915,0 12.54,5.625 12.54,12.541 0,6.91 -5.625,12.534 -12.54,12.534 z m 0,-23.437 c -6.011,0 -10.901,4.891 -10.901,10.902 0,6.008 4.891,10.895 10.901,10.895 6.01,0 10.901,-4.887 10.901,-10.895 0,-6.011 -4.89,-10.902 -10.901,-10.902 z"
               id="path171"
               style="fill:#dd002a" /><path
               d="m 124.36,66.457 c -4.991,0 -9.053,-4.059 -9.053,-9.049 0,-4.991 4.062,-9.053 9.053,-9.053 4.991,0 9.053,4.062 9.053,9.053 0,4.99 -4.062,9.049 -9.053,9.049 z m 0,-16.918 c -4.339,0 -7.87,3.53 -7.87,7.869 0,4.337 3.531,7.865 7.87,7.865 4.339,0 7.869,-3.528 7.869,-7.865 0,-4.339 -3.53,-7.869 -7.869,-7.869 z"
               id="path173"
               style="fill:#dd002a" /><polygon
               points="130.743,51.259 127.619,55.263 132.532,53.978 128.171,56.583 133.217,57.161 128.21,58.017 132.708,60.377 127.73,59.365 131.07,63.191 126.796,60.449 128.528,65.223 125.531,61.123 125.421,66.2 124.109,61.292 122.173,65.99 122.722,60.939 119.22,64.618 121.554,60.109 116.959,62.275 120.769,58.912 115.703,59.272 120.466,57.513 115.613,56.017 120.691,56.097 116.705,52.95 121.412,54.861 118.831,50.486 122.531,53.966 121.704,48.955 123.896,53.537 124.937,48.565 125.326,53.628 128.091,49.37 126.625,54.232 "
               id="polygon175"
               style="fill:#dd002a" /><path
               d="m 127.065,57.408 c 0,1.49 -1.212,2.703 -2.706,2.703 -1.492,0 -2.704,-1.213 -2.704,-2.703 0,-1.496 1.212,-2.706 2.704,-2.706 1.494,0 2.706,1.21 2.706,2.706 z"
               id="path177"
               style="fill:#050505" /></g><path
             d="m 123.723,179.607 c -29.288,0 -38.342,-13.639 -38.351,-13.652 l 1.053,19.381 c 0,0 8.804,13.283 37.315,13.283 23.973,0 38.552,-13.283 38.552,-13.283 l 1.054,-19.381 c -0.016,0.015 -14.997,13.652 -39.623,13.652 z"
             id="path179"
             style="fill:#dd002a" /><path
             d="m 124.358,198.369 c 0.714,-2.52 1.146,-5.764 1.146,-9.305 0,-3.541 -0.432,-6.785 -1.146,-9.305 -0.712,2.52 -1.143,5.764 -1.143,9.305 0,3.541 0.431,6.785 1.143,9.305 z"
             id="path181"
             style="fill:#050505" /><circle
             cx="131.29601"
             cy="189.66"
             r="2.6800001"
             id="circle183"
             style="fill:#930023" /><circle
             cx="130.7"
             cy="189.064"
             r="2.6800001"
             id="circle185"
             style="fill:#ffffff" /><path
             d="m 133.843,215.753 h -18.967 c -3.01,0 -5.458,2.449 -5.458,5.459 v 13.494 c 0,3.01 2.448,5.459 5.458,5.459 h 18.967 c 3.01,0 5.457,-2.449 5.457,-5.459 v -13.494 c 0,-3.009 -2.447,-5.459 -5.457,-5.459 z m -1.477,7.575 v 9.264 c 0,0.553 -0.45,1.002 -1,1.002 h -14.011 c -0.553,0 -1.001,-0.449 -1.001,-1.002 v -9.264 c 0,-0.553 0.448,-1.002 1.001,-1.002 h 14.011 c 0.55,0 1,0.449 1,1.002 z"
             id="path187"
             style="fill:#ffb000" /><polygon
             points="124.31,109.934 124.36,109.884 124.41,109.934 134.896,102.546 113.824,102.546 "
             id="polygon189"
             style="fill:#c98c28" /><g
             id="g191"><path
               d="m 124.359,108.296 c 0,0 -8.834,-10.521 -29.578,-5.359 -20.744,5.16 -31.363,30.867 -31.363,30.867 0,0 11.314,8.438 28.981,6.154 17.667,-2.281 32.059,-21.141 31.96,-31.662 z"
               id="path193"
               style="fill:#4f1907" /><path
               d="m 124.36,108.296 c 0,0 8.833,-10.521 29.577,-5.359 20.744,5.16 31.365,30.867 31.365,30.867 0,0 -11.314,8.438 -28.982,6.154 -17.668,-2.281 -32.059,-21.141 -31.96,-31.662 z"
               id="path195"
               style="fill:#4f1907" /></g><polygon
             points="169.183,198.519 165.962,202.511 162.711,198.519 164.556,198.519 164.556,196.716 157.615,196.716 157.615,198.519 160.365,198.519 165,204.218 165,207.779 162.307,207.779 162.307,209.587 169.61,209.587 169.61,207.779 166.916,207.779 166.916,204.218 171.55,198.519 174.292,198.519 174.292,196.716 167.351,196.716 167.351,198.519 "
             id="polygon197"
             style="fill:#dd002a" /></g></g></g></g></svg>